Coordinates
version=1
nRows=6
nColumns=36
inDegrees=yes

Units are S.I. units (second, meters, Newtons, ...)
If the header above contains a line with 'inDegrees', this indicates whether rotational values are in degrees (yes) or radians (no).

endheader
time	pelvis_tilt	pelvis_list	pelvis_rotation	pelvis_tx	pelvis_ty	pelvis_tz	hip_flexion_r	hip_adduction_r	hip_rotation_r	knee_angle_r	knee_angle_r_beta	ankle_angle_r	subtalar_angle_r	mtp_angle_r	hip_flexion_l	hip_adduction_l	hip_rotation_l	knee_angle_l	knee_angle_l_beta	ankle_angle_l	subtalar_angle_l	mtp_angle_l	lumbar_extension	lumbar_bending	lumbar_rotation	arm_flex_r	arm_add_r	arm_rot_r	elbow_flex_r	pro_sup_r	arm_flex_l	arm_add_l	arm_rot_l	elbow_flex_l	pro_sup_l
      1.72000000	    -24.15942103	     -0.58908497	      0.70839989	     -0.30290043	      0.64812305	     -0.60467013	     84.79719936	    -10.22405716	      2.60208613	     92.86785699	      1.62084987	     28.26159823	    -15.72411755	     -7.31527454	     85.71941626	     -9.94117676	      6.14523877	     91.90524218	      1.60404908	     26.09545617	    -10.77289465	     -7.31527454	    -19.25402014	      1.98942634	     -1.36075477	    -17.22425943	     -6.42325184	    -17.37129082	     19.87258583	    105.77467903	    -21.11389279	     -2.51344368	    -33.31193396	     24.09292407	     99.50670752
      1.73000000	    -24.48243900	     -0.60708922	      0.59659111	     -0.29902256	      0.63748367	     -0.60508296	     86.33158225	    -10.22069215	      3.08956513	     95.20687576	      1.66167345	     28.44751744	    -15.83486617	     -7.31629034	     86.95673737	    -10.02170465	      6.53576799	     94.00555629	      1.64070647	     26.69698829	    -11.02765863	     -7.31629034	    -19.84065160	      2.05177899	     -1.32902551	    -14.51464269	     -6.70050117	    -17.30571085	     20.40842375	    105.66866825	    -18.34837137	     -2.45506098	    -32.97621041	     24.72660276	     99.56121126
      1.74000000	    -25.26632234	     -0.52822275	      0.34417519	     -0.29557372	      0.62768555	     -0.60547659	     88.18142216	    -10.07437618	      3.66800364	     97.10237348	      1.69475613	     29.08211001	    -15.15360765	     -7.32057852	     88.45422999	    -10.01084150	      6.97821520	     95.84014686	      1.67272612	     28.78451855	    -10.46204498	     -7.32057852	    -19.63322116	      1.96301320	     -1.40960972	    -10.94163128	     -7.14543535	    -16.82088524	     19.13357723	    105.29354623	    -15.19023634	     -2.70742245	    -31.69214112	     23.93886147	     99.69295279
      1.75000000	    -25.65303201	     -0.65672220	      0.00848333	     -0.29242586	      0.61989256	     -0.60545349	     89.25335885	     -9.68548861	      3.97297925	     98.59524325	      1.72081162	     30.05722151	    -14.45824522	     -7.33820155	     89.58812457	    -10.13231566	      7.69243161	     97.60257385	      1.70348627	     29.98804538	     -9.49101155	     -7.33820155	    -19.85187240	      2.09056231	     -1.47294820	     -6.92781622	     -8.11369435	    -11.68262309	     17.33946565	    104.14332161	    -11.64777978	     -3.68469319	    -25.54750464	     21.46112596	     98.92945472
      1.76000000	    -26.01472829	     -0.84687454	     -0.13942354	     -0.28995221	      0.61353523	     -0.60534120	     90.05058799	     -9.34306528	      4.03448252	     99.68095578	      1.73976088	     30.28339605	    -15.18066776	     -7.39630673	     90.72783224	    -10.02402535	      8.40312574	     99.05393289	      1.72881727	     29.80222598	    -10.14971290	     -7.39630673	    -20.07814130	      2.27594488	     -1.86973713	     -2.64149194	     -8.82357121	     -6.73346770	     16.25537586	     99.53166531	     -7.95805762	     -4.26936555	    -21.63481251	     20.71989111	     92.18019453
      1.77000000	    -26.11774512	     -0.99786156	     -0.06765977	     -0.28774040	      0.60877983	     -0.60507557	     90.39973910	     -9.20071959	      4.01911356	    100.55504510	      1.75501662	     30.64250900	    -15.85729060	     -7.40569900	     91.51667693	     -9.80572452	      8.93411242	    100.22935263	      1.74933221	     29.45027623	    -10.58542391	     -7.40569900	    -20.58087564	      2.41998486	     -2.07033402	      1.18625109	     -9.10052116	     -5.58981159	     16.62087291	     99.67788058	     -3.79122513	     -4.97234951	    -19.03035158	     19.97655165	     92.03837869
